<?xml version="1.0" encoding="utf-8"?>
<!-- Generator: Adobe Illustrator 16.0.0, SVG Export Plug-In . SVG Version: 6.00 Build 0)  -->
<!DOCTYPE svg PUBLIC "-//W3C//DTD SVG 1.1//EN" "http://www.w3.org/Graphics/SVG/1.1/DTD/svg11.dtd">
<svg version="1.1" id="Layer_1" xmlns="http://www.w3.org/2000/svg" xmlns:xlink="http://www.w3.org/1999/xlink" x="0px" y="0px"
	 width="1440px" height="510px" viewBox="0 0 1440 510" enable-background="new 0 0 1440 510" xml:space="preserve">
<g>
	<rect fill="#353FB6" width="1440" height="510"/>
	<g>
		<g>
			<rect x="719.555" fill="#FFCB2B" width="287.854" height="254.607"/>
			<g>
				<ellipse fill="#FFB3BF" cx="863.562" cy="127.27" rx="93.057" ry="93.131"/>
				<g>
					<path fill="#353FB6" d="M891.822,173.474c0,15.565-12.607,28.183-28.159,28.183c-15.553,0-28.16-12.618-28.16-28.183"/>
					<g>
						<path fill="#FF461C" d="M882.582,194.246c-4.972-4.598-11.616-7.41-18.919-7.41c-7.304,0-13.948,2.812-18.92,7.41
							c4.972,4.598,11.616,7.41,18.92,7.41C870.966,201.656,877.61,198.844,882.582,194.246z"/>
					</g>
				</g>
				<path fill="#2E2C2D" d="M920.079,127.598c-31.039,0-56.201-25.182-56.201-56.246h-0.032c0,31.064-25.162,56.246-56.201,56.246
					l-37.137-0.328c0-51.434,41.663-93.131,93.058-93.131c51.394,0,93.056,41.697,93.056,93.131"/>
			</g>
		</g>
		<rect x="1007.406" fill="#FFFFFF" width="143.979" height="254.529"/>
		<g>
			<path fill="#353FB6" d="M1080.172,39.402c-19.982,0-37.604,10.109-48.041,25.495c10.438,15.385,28.059,25.495,48.041,25.495
				c19.981,0,37.604-10.11,48.041-25.495C1117.775,49.511,1100.153,39.402,1080.172,39.402z"/>
			<ellipse fill="#FFB3BF" cx="1079.931" cy="64.517" rx="18.669" ry="18.684"/>
		</g>
		<rect x="1151.388" fill="#FFB3BF" width="144.107" height="127.968"/>
		<polygon fill="#FF461C" points="1250.984,19.072 1196.746,19.072 1169.626,66.083 1196.746,113.092 1250.984,113.092 
			1278.104,66.083 		"/>
		<g>
			<path fill="#FFCB2B" d="M1047.805,159.798c3.89,0,3.89-15.421,7.779-15.421c3.891,0,3.891,15.421,7.779,15.421
				c3.892,0,3.892-15.421,7.781-15.421c3.889,0,3.89,15.421,7.777,15.421c3.894,0,3.894-15.421,7.783-15.421
				c3.892,0,3.892,15.421,7.785,15.421c3.891,0,3.891-15.421,7.781-15.421c3.894,0,3.894,15.421,7.787,15.421
				c1.545,0,2.476-2.431,3.28-5.36l-33.873-88.979l-34.393,90.815C1045.768,158.317,1046.599,159.798,1047.805,159.798z"/>
			<path fill="#353FB6" d="M1151.688,254.353l-38.345-99.988c-0.805,2.908-1.735,5.321-3.28,5.321
				c-3.894,0-3.894-15.309-7.787-15.309c-3.892,0-3.892,15.309-7.782,15.309c-3.892,0-3.892-15.309-7.784-15.309
				c-3.892,0-3.892,15.309-7.783,15.309c-3.89,0-3.89-15.309-7.777-15.309c-3.891,0-3.891,15.309-7.781,15.309
				s-3.891-15.309-7.779-15.309c-3.891,0-3.891,15.309-7.78,15.309c-1.206,0-2.036-1.47-2.728-3.497l-37.444,98.164H1151.688z"/>
		</g>
		<path fill="#FF461C" d="M768.308,305.766"/>
		<path fill="#FF461C" d="M768.544,329.089"/>
		<rect x="287.794" fill="#FFB3BF" width="287.962" height="130"/>
		<rect x="575.757" fill="#2E2C2D" width="143.794" height="127.124"/>
		<rect x="0.07" y="255.179" fill="#2E2C2D" width="287.729" height="127.563"/>
		<rect y="382.749" fill="#96C5F0" width="143.812" height="127.161"/>
		<g>
			<rect x="0.07" fill="#FFB3BF" width="11.355" height="255.179"/>
			<rect x="25.149" fill="#FFB3BF" width="12.753" height="255.179"/>
			<rect x="51.626" fill="#FFB3BF" width="12.754" height="255.179"/>
			<rect x="78.104" fill="#FFB3BF" width="12.754" height="255.179"/>
			<rect x="104.583" fill="#FFB3BF" width="12.753" height="255.179"/>
			<rect x="131.06" fill="#FFB3BF" width="12.754" height="255.179"/>
		</g>
		<g>
			<path fill="#353FB6" d="M504.044,34.947c0,39.955-32.364,72.345-72.286,72.345c-39.923,0-72.286-32.391-72.286-72.345"/>
			<g>
				<path fill="#FF461C" d="M480.324,88.269c-12.765-11.802-29.819-19.022-48.566-19.022s-35.803,7.22-48.566,19.022
					c12.763,11.803,29.819,19.023,48.566,19.023S467.561,100.072,480.324,88.269z"/>
			</g>
		</g>
		<g>
			<path fill="#FF461C" d="M142.672,300.459c-25.494,0-46.161,20.684-46.161,46.199h14.394c0-17.562,14.223-31.794,31.767-31.794
				s31.767,14.232,31.767,31.794h14.394C188.833,321.143,168.167,300.459,142.672,300.459z"/>
			<g>
				<ellipse fill="#FF461C" cx="84.839" cy="320.198" rx="46.161" ry="46.198"/>
				<ellipse fill="#96C5F0" cx="84.838" cy="320.198" rx="31.767" ry="31.792"/>
				<ellipse fill="#FF461C" cx="202.572" cy="320.198" rx="46.161" ry="46.198"/>
				<ellipse fill="#96C5F0" cx="202.572" cy="320.198" rx="31.767" ry="31.792"/>
			</g>
		</g>
		<g>
			<g>
				<ellipse fill="#FFB3BF" cx="73.38" cy="448.409" rx="50.002" ry="50.042"/>
				<path fill="#FF461C" d="M103.748,448.585c-16.679,0-30.199-13.53-30.199-30.222h-0.017c0,16.689-13.521,30.222-30.199,30.222
					l-19.954-0.176c0-27.64,22.387-50.042,50.002-50.042c27.615,0,50.002,22.402,50.002,50.042"/>
				<g>
					<path fill="#2E2C2D" d="M88.417,470.992c0,8.451-6.846,15.303-15.292,15.303c-8.445,0-15.291-6.852-15.291-15.303"/>
					<g>
						<path fill="#FF461C" d="M83.498,482.231c-2.726-2.521-6.369-4.062-10.373-4.062s-7.647,1.541-10.373,4.062
							c2.726,2.521,6.369,4.062,10.373,4.062C77.129,486.295,80.772,484.753,83.498,482.231z"/>
					</g>
				</g>
			</g>
		</g>
		<g>
			<ellipse fill="#FFB3BF" cx="651.283" cy="69.866" rx="41.431" ry="41.465"/>
			<path fill="#353FB6" d="M700.475,35.818c0-9.421-7.631-17.058-17.044-17.058c-7.914,0-14.548,5.405-16.468,12.723
				c-4.837-1.981-10.129-3.082-15.68-3.082s-10.842,1.101-15.682,3.082c-1.919-7.317-8.554-12.723-16.468-12.723
				c-9.413,0-17.044,7.637-17.044,17.058v22.733h9.335c-1.018,3.598-1.575,7.391-1.575,11.315l16.534,0.146
				c13.82,0,25.023-11.212,25.023-25.043h0.014c0,13.832,11.203,25.043,25.023,25.043l16.269-0.146c0-3.86-0.538-7.592-1.524-11.138
				h9.285L700.475,35.818L700.475,35.818z"/>
			<path fill="#2E2C2D" d="M663.769,88.437c0,6.605-5.35,11.958-11.947,11.958c-6.601,0-11.948-5.354-11.948-11.958"/>
			<g>
				<path fill="#FF461C" d="M659.848,97.25c-2.107-1.951-4.929-3.144-8.026-3.144c-3.101,0-5.918,1.193-8.027,3.144
					c2.109,1.951,4.929,3.145,8.027,3.145C654.919,100.395,657.739,99.201,659.848,97.25z"/>
			</g>
		</g>
		<rect x="431.758" y="127.083" fill="#FFFFFF" width="287.689" height="128.377"/>
		<polygon fill="#353FB6" points="523.812,207.577 526.379,234.521 506.113,216.598 486.666,235.406 488.031,208.375 
			461.213,204.884 483.181,189.099 469.188,165.939 495.215,173.286 504.583,147.896 515.072,172.843 540.748,164.342 
			527.799,188.104 550.448,202.894 		"/>
		<path fill="#FFCB2B" d="M575.757,255.211V127.627c39.823,0,72.106,32.309,72.106,72.165h-0.23
			c0-39.855,32.283-72.165,72.106-72.165v127.584H575.757z"/>
		<path fill="#96C5F0" d="M575.757,309.801V182.217c39.823,0,72.106,32.309,72.106,72.164h-0.23
			c0-39.854,32.283-72.164,72.106-72.164v127.584H575.757z"/>
		<rect x="431.77" y="254.607" fill="#353FB6" width="287.97" height="255.303"/>
		<g>
			<g>
				<path fill="#FF461C" d="M667.726,394.821c0-50.731-41.091-91.858-91.777-91.858c-50.688,0-91.779,41.127-91.779,91.858v47.875
					h183.34L667.726,394.821z"/>
				<ellipse fill="#FFCB2B" cx="575.947" cy="394.821" rx="66.686" ry="66.744"/>
				<path fill="#FF461C" d="M584.325,428.142c0,2.729-3.751,4.939-8.378,4.939s-8.378-2.212-8.378-4.939"/>
				<path fill="#FF461C" d="M618.676,395.057c-23.467,0-42.492-19.04-42.492-42.526h-0.022c0,23.486-19.024,42.526-42.492,42.526
					l-28.077-0.248c0-38.89,31.499-70.416,70.355-70.416c38.854,0,70.354,31.526,70.354,70.416"/>
			</g>
			<path fill="#FF461C" d="M567.538,428.244c0-2.407,1.95-4.358,4.354-4.358c2.404,0,4.354,1.951,4.354,4.358"/>
			<path fill="#FF461C" d="M575.599,428.244c0-2.407,1.949-4.358,4.354-4.358s4.354,1.951,4.354,4.358"/>
		</g>
		<rect x="1295.573" fill="#FFFFFF" width="144.427" height="128.186"/>
		<g>
			<path fill="#FFCB2B" d="M1318.884,128.803h120.763V0H1322.78c-16.466,17.27-26.593,40.728-26.593,66.572
				C1296.188,90.312,1304.732,112.037,1318.884,128.803z"/>
			<path fill="#FF461C" d="M1347.901,128.803h87.234c1.549-1.104,3.052-2.273,4.511-3.49V7.842
				c-3.531-2.943-7.325-5.577-11.354-7.842h-73.547c-23.152,13.022-38.813,37.951-38.813,66.572
				C1315.933,92.274,1328.561,115.004,1347.901,128.803z"/>
			<path fill="#353FB6" d="M1391.68,123.522c20.48,0,38.413-10.989,48.32-27.432c-0.146-0.258-0.242-0.559-0.242-0.913V36.665
				c-9.955-16.225-27.761-27.042-48.078-27.042c-31.203,0-56.498,25.496-56.498,56.948
				C1335.182,98.024,1360.477,123.522,1391.68,123.522z"/>
			<ellipse fill="#2E2C2D" cx="1391.52" cy="67.016" rx="36.934" ry="36.961"/>
		</g>
		<path fill="#FFB3BF" d="M1369.75,67.075c0.328,12.332,10.465,22.003,22.456,22.003H1440V43.8h-48.252
			C1379.389,43.8,1369.409,54.282,1369.75,67.075z"/>
		<path fill="#FF461C" d="M1391.459,78.103"/>
		<path fill="#FF461C" d="M1391.224,54.779"/>
		<rect x="1151.388" y="127.672" fill="#353FB6" width="288.429" height="382.328"/>
		<g>
			<rect x="1295.369" y="254.353" fill="#96C5F0" width="12.754" height="255.31"/>
			<rect x="1321.848" y="254.353" fill="#96C5F0" width="12.754" height="255.31"/>
			<rect x="1348.325" y="254.353" fill="#96C5F0" width="12.754" height="255.31"/>
			<rect x="1374.803" y="254.353" fill="#96C5F0" width="12.754" height="255.31"/>
			<rect x="1401.281" y="254.353" fill="#96C5F0" width="12.754" height="255.31"/>
			<rect x="1427.759" y="254.353" fill="#96C5F0" width="11.741" height="255.31"/>
		</g>
		<g>
			<path fill="#FF461C" d="M1150.25,381.552V254.353c40.138,0,72.675,32.309,72.675,72.164h-0.229
				c0-39.854,32.538-72.164,72.675-72.164v127.199H1150.25z"/>
			<path fill="#2E2C2D" d="M1151.388,445.175V317.976c39.823,0,72.105,32.311,72.105,72.163h-0.229
				c0-39.854,32.283-72.163,72.105-72.163v127.199H1151.388L1151.388,445.175z"/>
			<path fill="#FFCB2B" d="M1151.388,510.139V382.939c39.823,0,72.105,32.31,72.105,72.163h-0.229
				c0-39.854,32.283-72.163,72.105-72.163v127.198L1151.388,510.139L1151.388,510.139z"/>
		</g>
		<rect x="143.844" fill="#FFFFFF" width="143.948" height="254.866"/>
		<g>
			<path fill="#FFB3BF" d="M166.7,66.559h99.1V167.69c0,27.446-22.275,49.673-49.7,49.59l0,0c-27.307-0.082-49.4-22.26-49.4-49.59
				V66.559L166.7,66.559z"/>
			<path fill="#353FB6" d="M166.7,43.822h99.1v74.446c0,27.447-22.275,49.674-49.7,49.59l0,0c-27.307-0.083-49.4-22.261-49.4-49.59
				V43.822L166.7,43.822z"/>
			<path fill="#FF461C" d="M166.7,37.765h99.1v31.083c0,27.447-22.275,49.673-49.7,49.59l0,0c-27.307-0.083-49.4-22.26-49.4-49.59
				V37.765L166.7,37.765z"/>
		</g>
		<rect x="143.809" y="382.749" fill="#FFFFFF" width="143.992" height="127.161"/>
		<path fill="#2E2C2D" d="M143.809,381.738V509.91h36.173v-53.676c0-20.597,16.583-37.272,36.999-37.21l0,0
			c20.328,0.062,36.775,16.702,36.775,37.21v53.676h34.045V381.738H143.809z"/>
		<rect x="863.426" y="254.607" fill="#FF461C" width="287.962" height="255.343"/>
		<g>
			<path fill="#353FB6" d="M1006.184,369.103c0-30.927,25.053-55.994,55.952-55.994c30.901,0,55.951,25.067,55.951,55.994
				l0.095-0.036c0,61.672-49.955,111.667-111.575,111.667c-61.623,0-111.577-49.995-111.577-111.667l0.016,0.036
				c0-30.927,25.051-55.994,55.952-55.994c30.9,0,55.951,25.067,55.951,55.994"/>
			<path fill="#2E2C2D" d="M1006.631,316.941c0.913-29.868,24.927-53.899,54.771-54.814
				C1060.487,291.994,1036.475,316.027,1006.631,316.941z"/>
			<g>
				<path fill="#FFB3BF" d="M872.019,509.95v-46.766c0-12.22,10.128-22.124,22.621-22.124s22.621,9.904,22.621,22.124v46.766
					H872.019z"/>
				<path fill="#FFB3BF" d="M928.119,509.95V382.875c0-12.219,10.128-22.125,22.621-22.125s22.621,9.906,22.621,22.125V509.95
					H928.119z"/>
				<path fill="#FFB3BF" d="M984.22,509.95V364.425c0-12.058,9.664-22.248,21.985-22.578c12.784-0.344,23.257,9.69,23.257,22.116
					V509.95H984.22z"/>
				<path fill="#FFB3BF" d="M1040.32,509.95V382.875c0-12.219,10.128-22.125,22.621-22.125c12.492,0,22.619,9.906,22.619,22.125
					V509.95H1040.32z"/>
				<path fill="#FFB3BF" d="M1096.421,509.95v-82.235c0-12.22,10.128-22.125,22.621-22.125s22.622,9.905,22.622,22.125v82.235
					H1096.421z"/>
			</g>
		</g>
		<ellipse fill="#96C5F0" cx="1083.594" cy="347.445" rx="13.938" ry="13.947"/>
		<rect x="287.792" y="127.083" fill="#FFCB2B" width="143.979" height="382.827"/>
		<g>
			<g>
				<g>
					<path fill="#FF461C" d="M343.611,190.339c1.969,0,1.969-7.928,3.938-7.928c1.968,0,1.968,7.928,3.937,7.928
						c1.969,0,1.969-7.928,3.937-7.928c1.969,0,1.969,7.928,3.937,7.928c1.969,0,1.969-7.928,3.938-7.928
						c1.97,0,1.97,7.928,3.939,7.928c1.969,0,1.969-7.928,3.938-7.928c1.97,0,1.97,7.928,3.941,7.928
						c0.782,0,1.253-1.25,1.661-2.755l-17.143-45.737l-17.404,46.681C342.581,189.577,343.001,190.339,343.611,190.339z"/>
					<path fill="#FFB3BF" d="M396.182,239.354l-19.404-51.771c-0.408,1.506-0.879,2.755-1.661,2.755
						c-1.971,0-1.971-7.928-3.941-7.928c-1.969,0-1.969,7.928-3.938,7.928c-1.97,0-1.97-7.928-3.939-7.928
						c-1.969,0-1.969,7.928-3.938,7.928c-1.968,0-1.968-7.928-3.937-7.928c-1.968,0-1.968,7.928-3.937,7.928
						c-1.969,0-1.969-7.928-3.937-7.928c-1.969,0-1.969,7.928-3.938,7.928c-0.61,0-1.031-0.762-1.38-1.811l-18.95,50.827H396.182z"
						/>
				</g>
				<rect x="323.288" y="239.344" fill="#FF461C" width="72.903" height="103.689"/>
				<path fill="#FF461C" d="M323.333,346.664c0.709,11.817,10.506,21.184,22.492,21.184h27.828c11.986,0,21.783-9.364,22.492-21.184
					H323.333z"/>
			</g>
			<path fill="#FFCB2B" d="M358.61,267.986c-12.019,0-21.762,9.75-21.762,21.779c0,12.026,9.743,21.776,21.762,21.776
				s21.762-9.75,21.762-21.776C380.372,277.736,370.628,267.986,358.61,267.986z M363.421,284.407c1.365,0,2.471,1.106,2.471,2.473
				c0,1.367-1.106,2.474-2.471,2.474c-1.365,0-2.471-1.105-2.471-2.474C360.95,285.516,362.056,284.407,363.421,284.407z
				 M353.799,284.407c1.365,0,2.471,1.106,2.471,2.473c0,1.367-1.106,2.474-2.471,2.474c-1.365,0-2.471-1.105-2.471-2.474
				C351.328,285.516,352.434,284.407,353.799,284.407z M358.61,300.812c-5.501,0-9.978-4.479-9.978-9.984
				c0-0.545,0.441-0.986,0.985-0.986s0.985,0.441,0.985,0.986c0,4.418,3.592,8.014,8.007,8.014s8.007-3.596,8.007-8.014
				c0-0.545,0.441-0.986,0.985-0.986s0.985,0.441,0.985,0.986C368.587,296.334,364.111,300.812,358.61,300.812z"/>
		</g>
		<g>
			<path fill="#353FB6" d="M358.266,446.938c0-13.549,10.974-24.53,24.512-24.53c13.54,0,24.512,10.981,24.512,24.53l0.041-0.017
				c0,27.02-21.885,48.92-48.881,48.92c-26.996,0-48.882-21.9-48.882-48.92l0.007,0.019c0-13.551,10.974-24.532,24.512-24.532
				s24.512,10.981,24.512,24.532"/>
			<path fill="#2E2C2D" d="M358.462,424.087c0.4-13.085,10.92-23.613,23.995-24.015
				C382.056,413.157,371.536,423.688,358.462,424.087z"/>
			<circle fill="#FFB3C0" cx="390.653" cy="439.914" r="5.042"/>
		</g>
		<rect x="719.739" y="254.607" fill="#2E2C2D" width="143.686" height="128.11"/>
		<path fill="#FF461C" d="M719.739,254.607c34.989,0,63.356,28.481,63.356,63.618c0,35.135-28.367,63.615-63.356,63.615V254.607z"/>
		<path fill="#96C5F0" d="M825.934,362.633c-23.75,0-43.004-19.269-43.004-43.038c0-23.769,19.254-43.038,43.004-43.038"/>
		<rect x="719.739" y="382.717" fill="#FFFFFF" width="143.463" height="127.283"/>
		<g>
			<path fill="#FFCB2B" d="M788.566,471.57c-2.808-5.533-0.6-12.297,4.932-15.104c5.529-2.809,12.287-0.6,15.094,4.937l9.599,14.435
				c1.627,2.446,5.13,2.663,7.06,0.447c6.81-7.817,10.812-18.146,10.433-29.415c-0.764-22.543-19.354-40.766-41.893-41.079
				c-23.766-0.333-43.136,18.849-43.136,42.557c0,23.507,19.04,42.562,42.524,42.562c0.027,0,0.056,0,0.081,0
				c3.521-0.008,5.576-3.992,3.617-6.918L788.566,471.57z"/>
			<ellipse fill="#96C5F0" cx="768.191" cy="461.328" rx="6.934" ry="6.939"/>
			<ellipse fill="#FFB3C0" cx="766.73" cy="438.714" rx="6.934" ry="6.939"/>
			<ellipse fill="#353FB6" cx="785.872" cy="421.092" rx="6.934" ry="6.939"/>
			<ellipse fill="#2E2C2D" cx="811.419" cy="426.826" rx="6.939" ry="6.939"/>
			<ellipse fill="#FF461C" cx="821.246" cy="447.844" rx="6.934" ry="6.939"/>
		</g>
	</g>
</g>
</svg>
